HIERARCHY
ROOT Pelvis
{
	OFFSET 0.000000 0.000000 0.000000
	CHANNELS 6 Xposition Yposition Zposition Xrotation Yrotation Zrotation
	JOINT LeftUpLeg_virtual
	{
		OFFSET 0.000000 0.000000 0.000000
		CHANNELS 3 Xrotation Yrotation Zrotation
		JOINT LeftUpLeg
		{
			OFFSET 18.735201 -5.666702 -4.541200
			CHANNELS 3 Xrotation Yrotation Zrotation
			JOINT LeftLeg
			{
				OFFSET -0.021200 -31.938179 0.493100
				CHANNELS 3 Xrotation Yrotation Zrotation
				JOINT LeftFoot
				{
					OFFSET 0.021200 -31.938179 -4.336299
					CHANNELS 3 Xrotation Yrotation Zrotation
					JOINT LeftToeBase
					{
						OFFSET 0.943001 -26.722000 15.023500
						CHANNELS 3 Xrotation Yrotation Zrotation
						End Site
						{
							OFFSET 0 0 0
						}
					}
				}
			}
		}
	}
	JOINT RightUpLeg_virtual
	{
		OFFSET 0.000000 0.000000 0.000000
		CHANNELS 3 Xrotation Yrotation Zrotation
		JOINT RightUpLeg
		{
			OFFSET -18.735201 -5.666702 -4.541200
			CHANNELS 3 Xrotation Yrotation Zrotation
			JOINT RightLeg
			{
				OFFSET 0.018946 -31.938133 0.493100
				CHANNELS 3 Xrotation Yrotation Zrotation
				JOINT RightFoot
				{
					OFFSET -0.018946 -31.938126 -4.336299
					CHANNELS 3 Xrotation Yrotation Zrotation
					JOINT RightToeBase
					{
						OFFSET -0.943001 -26.722004 15.023500
						CHANNELS 3 Xrotation Yrotation Zrotation
						End Site
						{
							OFFSET 0 0 0
						}
					}
				}
			}
		}
	}
	JOINT Hips_virtual
	{
		OFFSET 0.000000 0.000000 0.000000
		CHANNELS 3 Xrotation Yrotation Zrotation
		JOINT Hips
		{
			OFFSET -0.000000 -0.000000 -0.000000
			CHANNELS 3 Xrotation Yrotation Zrotation
			JOINT Spine
			{
				OFFSET 0.000000 10.199997 -0.299500
				CHANNELS 3 Xrotation Yrotation Zrotation
				JOINT Spine1
				{
					OFFSET 0.000000 11.900002 -1.516600
					CHANNELS 3 Xrotation Yrotation Zrotation
					JOINT Spine2
					{
						OFFSET 0.000000 13.600006 -2.842500
						CHANNELS 3 Xrotation Yrotation Zrotation
						JOINT Neck_virtual
						{
							OFFSET 0.000000 0.000000 0.000000
							CHANNELS 3 Xrotation Yrotation Zrotation
							JOINT Neck
							{
								OFFSET 0.000000 9.624100 -2.890100
								CHANNELS 3 Xrotation Yrotation Zrotation
								JOINT Head
								{
									OFFSET 0.000000 14.068802 -1.351900
									CHANNELS 3 Xrotation Yrotation Zrotation
									End Site
									{
										OFFSET 0 0 0
									}
								}
							}
						}
						JOINT LeftShoulder_virtual
						{
							OFFSET 0.000000 0.000000 0.000000
							CHANNELS 3 Xrotation Yrotation Zrotation
							JOINT LeftShoulder
							{
								OFFSET 15.263000 10.923401 -0.547700
								CHANNELS 3 Xrotation Yrotation Zrotation
								JOINT LeftArm
								{
									OFFSET 25.438599 -2.830597 -13.032500
									CHANNELS 3 Xrotation Yrotation Zrotation
									JOINT LeftForeArm
									{
										OFFSET 29.960503 0.000000 0.000000
										CHANNELS 3 Xrotation Yrotation Zrotation
										JOINT LeftHand
										{
											OFFSET 27.849251 0.000000 0.000000
											CHANNELS 3 Xrotation Yrotation Zrotation
											End Site
											{
												OFFSET 0 0 0
											}
										}
									}
								}
							}
						}
						JOINT RightShoulder_virtual
						{
							OFFSET 0.000000 0.000000 0.000000
							CHANNELS 3 Xrotation Yrotation Zrotation
							JOINT RightShoulder
							{
								OFFSET -15.263000 10.923401 -0.547700
								CHANNELS 3 Xrotation Yrotation Zrotation
								JOINT RightArm
								{
									OFFSET -25.438599 -2.830597 -13.032500
									CHANNELS 3 Xrotation Yrotation Zrotation
									JOINT RightForeArm
									{
										OFFSET -29.960503 0.000000 0.000000
										CHANNELS 3 Xrotation Yrotation Zrotation
										JOINT RightHand
										{
											OFFSET -27.849251 0.000000 0.000000
											CHANNELS 3 Xrotation Yrotation Zrotation
											End Site
											{
												OFFSET 0 0 0
											}
										}
									}
								}
							}
						}
					}
				}
			}
		}
	}
}
MOTION
Frames: 8
Frame Time: 0.03333333
-0.256420 82.915085 5.867634 0.000000 0.000000 0.000000 9.336186 -3.857345 0.471510 -2.667975 10.132309 12.350847 32.298182 -4.796526 12.190639 -15.624633 -2.840854 15.587431 0.000000 0.000000 0.000000 8.690509 -1.686172 0.791276 -71.596625 -7.518910 -2.113690 71.778779 6.371238 -5.436575 -11.854952 -5.958490 -31.116252 0.000000 0.000000 0.000000 8.701230 -1.038842 0.675062 -0.919265 -0.005728 -0.048349 5.341663 0.756513 2.074588 0.339774 -2.737284 1.717754 0.000000 0.000000 0.000000 0.589782 -1.779084 1.659093 -0.558030 -1.283591 0.939001 0.000000 0.000000 0.000000 2.598970 -1.838123 2.446825 -7.277355 5.029258 1.857002 -19.326075 3.825708 -74.164462 -166.128601 -82.805628 -155.407240 0.000000 0.000000 0.000000 1.594376 -1.366454 0.453550 7.653797 -8.169187 12.288416 -33.337812 8.030580 72.417627 123.188718 49.641115 -127.312868 0.000000 0.000000 0.000000 
-0.563868 84.734955 5.420877 0.000000 0.000000 0.000000 10.011311 -3.505664 0.633324 -1.535288 10.353852 12.209128 28.443196 -6.670038 11.221896 -8.778677 -3.016227 11.537837 0.000000 0.000000 0.000000 9.359459 -1.469817 1.145843 -70.816679 -6.197795 -1.518999 69.197562 5.900729 -5.266287 -10.072255 -6.248570 -31.596223 0.000000 0.000000 0.000000 9.099711 -0.951019 0.635775 -0.948362 -0.014666 -0.081529 5.235394 0.952856 2.045390 -0.011296 -2.442487 1.546473 0.000000 0.000000 0.000000 1.209545 -1.617101 1.210196 -0.926784 -1.294772 0.856004 0.000000 0.000000 0.000000 3.077866 -1.708771 2.015008 -7.759946 4.154083 2.747961 -22.014325 2.841800 -73.260083 -170.813524 -80.161252 -160.163332 0.000000 0.000000 0.000000 0.745357 -1.146050 0.222499 7.767423 -6.983873 10.881637 -38.213191 10.033839 70.869394 125.840361 49.601472 -129.679898 0.000000 0.000000 0.000000 
-0.825559 87.841995 4.984205 0.000000 0.000000 0.000000 10.258426 -2.211282 0.403403 -1.826180 11.695277 11.310812 24.838499 -6.298088 9.270682 7.387323 -0.561749 10.521053 0.000000 0.000000 0.000000 9.527371 -0.557719 1.242251 -67.613252 -3.919883 -2.153054 63.514667 6.785332 -4.659169 -2.546657 -6.262524 -27.537393 0.000000 0.000000 0.000000 9.333804 -0.782310 0.760526 -0.899493 -0.032259 -0.104850 5.231528 1.028950 2.207007 0.423676 -2.077236 1.139808 0.000000 0.000000 0.000000 2.121323 -1.322808 0.599821 -1.304670 -1.302875 0.679919 0.000000 0.000000 0.000000 3.699146 -1.472201 1.283310 -8.116192 2.316878 3.916975 -27.577169 0.404129 -72.540816 -172.494215 -79.218925 -161.860839 0.000000 0.000000 0.000000 0.227657 -0.814380 -0.145364 7.531095 -6.048042 9.284455 -45.105179 12.385243 69.027026 127.848765 50.689983 -131.512315 0.000000 0.000000 0.000000 
-1.058740 91.365936 4.847427 0.000000 0.000000 0.000000 9.760585 -0.694666 -0.017279 -5.212323 12.910420 9.732340 25.389118 -3.606954 7.809121 25.731098 5.675765 12.273025 0.000000 0.000000 0.000000 9.015551 0.387790 1.098259 -62.426870 -1.454092 -3.237360 55.362126 8.653013 -3.186663 8.453386 -4.597990 -19.359521 0.000000 0.000000 0.000000 9.102973 -0.423933 0.845525 -0.788506 -0.068692 -0.125455 5.499445 0.998011 2.244194 1.618112 -1.717177 0.697806 0.000000 0.000000 0.000000 3.262639 -0.931528 0.103074 -1.630245 -1.308859 0.473959 0.000000 0.000000 0.000000 4.461290 -1.129364 0.528580 -8.325334 0.068245 5.350024 -35.148888 -2.930994 -72.533119 -171.732430 -80.856879 -160.966713 0.000000 0.000000 0.000000 0.268889 -0.400796 -0.454332 6.829897 -5.574720 7.550357 -52.613104 14.829384 66.958414 129.294566 52.772589 -132.846059 0.000000 0.000000 0.000000 
-1.287246 94.722672 5.039221 0.000000 0.000000 0.000000 8.638203 0.297822 -0.217754 -11.271197 12.878048 7.640276 31.560354 -0.723026 7.381414 38.098853 11.942562 13.451730 0.000000 0.000000 0.000000 8.016342 0.906507 0.897298 -56.032143 0.388530 -4.680536 45.254597 10.692095 -0.579338 19.018974 -0.140986 -9.497363 0.000000 0.000000 0.000000 8.405271 0.106343 0.873898 -0.668225 -0.062734 -0.135132 6.046072 0.889325 1.794633 3.291419 -1.340579 0.451731 0.000000 0.000000 0.000000 4.541219 -0.431330 -0.055204 -1.855035 -1.306990 0.289647 0.000000 0.000000 0.000000 5.430397 -0.698981 0.054387 -8.433679 -2.136410 7.094652 -44.464979 -5.870728 -73.509283 -165.973938 -84.896581 -154.843681 0.000000 0.000000 0.000000 0.942726 0.100276 -0.453362 5.534163 -5.690376 5.220523 -60.579721 17.071199 65.142909 129.349112 56.096508 -133.052372 0.000000 0.000000 0.000000 
-1.594621 97.464218 5.627399 0.000000 0.000000 0.000000 7.094767 0.466036 -0.055456 -19.147880 11.800376 5.772307 42.825112 1.042452 7.293663 43.773443 14.418601 12.503599 0.000000 0.000000 0.000000 6.598287 0.909813 0.737872 -49.398906 0.710220 -5.812671 35.409470 12.209875 2.792589 26.849431 6.143000 -0.067563 0.000000 0.000000 0.000000 7.199334 0.582728 0.914693 -0.622663 -0.014435 -0.138737 7.001010 0.694610 0.710308 5.113742 -0.921016 0.581085 0.000000 0.000000 0.000000 5.872991 0.155138 0.194180 -1.949639 -1.293415 0.142278 0.000000 0.000000 0.000000 6.509569 -0.184821 0.061724 -8.533161 -3.873214 9.310630 -54.061289 -7.130167 -75.037414 -112.582575 -88.983356 -100.951371 0.000000 0.000000 0.000000 2.198645 0.707062 -0.037614 3.609791 -6.665949 1.884972 -69.058813 18.696571 64.502087 126.590945 60.758549 -130.800500 0.000000 0.000000 0.000000 
-1.997599 99.038399 6.767431 0.000000 0.000000 0.000000 5.091627 0.506042 0.311406 -29.017721 11.330087 5.469326 59.593844 1.428641 6.414624 45.726491 13.093936 9.374106 0.000000 0.000000 0.000000 4.747400 0.566375 0.644865 -43.244199 -0.419825 -5.932272 28.199172 12.581506 6.078687 30.116059 11.520693 7.318882 0.000000 0.000000 0.000000 5.324456 1.141056 1.009951 -0.657133 0.007100 -0.122587 8.368078 0.418396 -0.743230 6.942545 -0.436290 1.087861 0.000000 0.000000 0.000000 6.980304 0.811465 0.755788 -1.928929 -1.274350 0.022354 0.000000 0.000000 0.000000 7.643072 0.380019 0.543561 -8.600339 -5.223263 11.917290 -62.754781 -6.921763 -76.321654 -8.848397 -87.028891 3.310732 0.000000 0.000000 0.000000 3.718102 1.410169 0.751169 1.223585 -7.945267 -2.438466 -77.829200 19.600319 65.766840 119.498572 66.172758 -124.696469 0.000000 0.000000 0.000000 
-2.658484 98.980927 8.209057 0.000000 0.000000 0.000000 2.478001 0.570441 0.687007 -41.289603 11.707053 7.629688 79.702693 0.799829 4.647952 45.590553 10.537437 5.871544 0.000000 0.000000 0.000000 2.525901 0.298503 0.576914 -37.688554 -1.881742 -4.845830 24.293514 11.704099 8.258229 28.467433 13.438195 11.586800 0.000000 0.000000 0.000000 2.778963 1.572940 1.216813 -0.705790 0.035883 -0.081996 10.222310 0.068357 -2.095530 8.573810 0.113449 1.701573 0.000000 0.000000 0.000000 7.654426 1.452592 1.411268 -1.792667 -1.245531 -0.089212 0.000000 0.000000 0.000000 8.674764 0.935922 1.299045 -8.630306 -6.329203 14.428795 -69.868116 -5.722901 -76.822013 6.351427 -86.605808 18.832223 0.000000 0.000000 0.000000 5.061354 2.159255 1.641476 -1.304222 -9.043402 -7.388164 -85.810050 19.422867 68.312902 109.073306 70.947238 -115.747623 0.000000 0.000000 0.000000 
